<svg xmlns="http://www.w3.org/2000/svg" width="205.002" height="172.504" viewBox="0 0 205.002 172.504"><defs><style>.a{fill:#dfe4ef;}.b{fill:#858890;}</style></defs><g transform="translate(-580.068 -297.415)"><path class="a" d="M645.265,399.733h19.068l17.727,18,18.771-18h57.832l-10.517,56.592a16.633,16.633,0,0,1-16.353,13.594H615.849a16.634,16.634,0,0,1-16.327-13.455l-11.045-56.731h56.788"/><path class="b" d="M646.083,364.531a2.5,2.5,0,0,1-2.491-2.315c-.11-1.489-.167-3.014-.168-4.532a60.262,60.262,0,1,1,120.525-.005c0,1.518-.056,3.044-.168,4.534a2.5,2.5,0,1,1-4.986-.373c.1-1.367.154-2.767.154-4.161a55.262,55.262,0,1,0-110.525,0c0,1.394.053,2.795.155,4.163a2.5,2.5,0,0,1-2.308,2.678C646.208,364.529,646.145,364.531,646.083,364.531Z"/><path class="b" d="M716.294,364.531c-.063,0-.126,0-.19-.007a2.5,2.5,0,0,1-2.306-2.68c.1-1.367.154-2.767.154-4.161a55.108,55.108,0,0,0-18.94-41.652,2.5,2.5,0,1,1,3.281-3.771,60.1,60.1,0,0,1,20.659,45.426c0,1.515-.056,3.041-.168,4.531A2.5,2.5,0,0,1,716.294,364.531Z"/><path class="b" d="M601.083,364.531a2.5,2.5,0,0,1-2.491-2.315c-.11-1.489-.167-3.014-.168-4.532a60.294,60.294,0,0,1,83.718-55.533,2.5,2.5,0,0,1-1.945,4.605,54.789,54.789,0,0,0-21.433-4.341h-.075a55.328,55.328,0,0,0-55.265,55.268c0,1.394.053,2.795.155,4.163a2.5,2.5,0,0,1-2.308,2.678C601.208,364.529,601.145,364.531,601.083,364.531Z"/><path class="b" d="M660.142,364.531a2.5,2.5,0,0,1-2.484-2.238,47.083,47.083,0,0,1-.259-4.92,46.345,46.345,0,0,1,46.289-46.284h.006a46.345,46.345,0,0,1,46.284,46.283,46.881,46.881,0,0,1-.24,4.731,2.5,2.5,0,1,1-4.974-.506,42.141,42.141,0,0,0,.214-4.224,41.339,41.339,0,0,0-41.284-41.284h-.006A41.337,41.337,0,0,0,662.4,357.373a41.992,41.992,0,0,0,.232,4.4,2.5,2.5,0,0,1-2.224,2.748C660.317,364.526,660.229,364.531,660.142,364.531Z"/><path class="b" d="M703.249,364.35a2.452,2.452,0,0,1-.256-.013,2.5,2.5,0,0,1-2.234-2.74,42.141,42.141,0,0,0,.214-4.224,41.4,41.4,0,0,0-20.543-35.707,2.5,2.5,0,0,1,2.511-4.323,46.336,46.336,0,0,1,22.792,44.76A2.5,2.5,0,0,1,703.249,364.35Z"/><path class="b" d="M616.142,364.531a2.5,2.5,0,0,1-2.484-2.238,47.083,47.083,0,0,1-.259-4.92,46.327,46.327,0,0,1,46.327-46.29h.041a46.193,46.193,0,0,1,6.45.457,2.5,2.5,0,1,1-.7,4.95,41.417,41.417,0,0,0-5.753-.407h-.037A41.327,41.327,0,0,0,618.4,357.375a41.982,41.982,0,0,0,.232,4.394,2.5,2.5,0,0,1-2.224,2.748C616.317,364.526,616.229,364.531,616.142,364.531Z"/><path class="b" d="M594.679,390.273a14.612,14.612,0,1,1,0-29.223H770.46a14.611,14.611,0,0,1,0,29.221H711.142a2.5,2.5,0,0,1,0-5h59.319a9.611,9.611,0,1,0,0-19.221H594.686a9.612,9.612,0,1,0-.006,19.223h59.591a2.5,2.5,0,0,1,0,5H594.679Z"/><path class="b" d="M740.793,462.419H624.85a19.168,19.168,0,0,1-18.782-15.478L595.023,390.21a2.5,2.5,0,0,1,2.455-2.978h56.788a2.5,2.5,0,0,1,0,5H600.511l10.466,53.754a14.158,14.158,0,0,0,13.873,11.433H740.793a14.134,14.134,0,0,0,13.895-11.552l9.967-53.635H711.764a2.5,2.5,0,0,1,0-5h55.9a2.5,2.5,0,0,1,2.458,2.957L759.6,446.781A19.136,19.136,0,0,1,740.793,462.419Z"/><path class="b" d="M682.337,419.146h-.016a2.5,2.5,0,0,1-1.775-.755l-51.32-52.718a2.5,2.5,0,0,1,1.792-4.243H735.055a2.5,2.5,0,0,1,1.767,4.267L684.1,418.414A2.5,2.5,0,0,1,682.337,419.146Zm-45.4-52.716,45.421,46.657L729.02,366.43Z"/><path class="b" d="M696.234,460.919a1,1,0,0,1-.706-1.708l70.3-70.075a1,1,0,1,1,1.412,1.416l-70.3,70.075A1,1,0,0,1,696.234,460.919Z"/><path class="b" d="M724.23,460.92a1,1,0,0,1-.706-1.708l37.3-37.19a1,1,0,0,1,1.412,1.416l-37.3,37.19A1,1,0,0,1,724.23,460.92Z"/><path class="b" d="M668.285,460.919a1,1,0,0,1-.706-1.708l70.3-70.075a1,1,0,1,1,1.412,1.416l-70.3,70.075A1,1,0,0,1,668.285,460.919Z"/><path class="b" d="M640.334,460.919a1,1,0,0,1-.7-1.709l41.726-41.5a1,1,0,1,1,1.411,1.418l-41.726,41.5A1,1,0,0,1,640.334,460.919Z"/><path class="b" d="M615.182,458.128a1,1,0,0,1-.706-1.708l53.1-52.932a1,1,0,0,1,1.412,1.416l-53.1,52.932A1,1,0,0,1,615.182,458.128Z"/><path class="b" d="M607.117,438.262a1,1,0,0,1-.706-1.708l47.28-47.13a1,1,0,0,1,1.413,1.416l-47.281,47.13A1,1,0,0,1,607.117,438.262Z"/><path class="b" d="M602.176,414.687a1,1,0,0,1-.706-1.708L625.32,389.2a1,1,0,1,1,1.412,1.416l-23.85,23.777A1,1,0,0,1,602.176,414.687Z"/><path class="b" d="M667.823,460.92a1,1,0,0,1-.705-.291l-70.036-69.754a1,1,0,0,1,1.411-1.418l70.036,69.754a1,1,0,0,1-.706,1.709Z"/><path class="b" d="M640.125,461.127a1,1,0,0,1-.708-.294l-35.968-36.081a1,1,0,0,1,1.416-1.412l35.968,36.081a1,1,0,0,1-.708,1.706Z"/><path class="b" d="M695.48,460.631a1,1,0,0,1-.708-.294l-69.554-69.776a1,1,0,1,1,1.416-1.413l69.554,69.777a1,1,0,0,1-.708,1.706Z"/><path class="b" d="M723.254,460.631a1,1,0,0,1-.713-.3l-40.994-41.638a1,1,0,1,1,1.425-1.4l40.995,41.638a1,1,0,0,1-.713,1.7Z"/><path class="b" d="M749.423,458.664a1,1,0,0,1-.708-.294l-53.242-53.413a1,1,0,1,1,1.416-1.412l53.242,53.413a1,1,0,0,1-.708,1.706Z"/><path class="b" d="M758.437,440.332a1,1,0,0,1-.708-.294l-48.514-48.667a1,1,0,1,1,1.416-1.412l48.514,48.667a1,1,0,0,1-.708,1.706Z"/><path class="b" d="M763.006,416.51a1,1,0,0,1-.711-.3L736.973,390.6A1,1,0,1,1,738.4,389.2l25.322,25.611a1,1,0,0,1-.711,1.7Z"/></g></svg>
